<svg xmlns="http://www.w3.org/2000/svg" width="70" height="70" viewBox="0 0 70 70"><path fill="#A29162" d="M35 1.167c18.656 0 33.833 15.178 33.833 33.833S53.656 68.833 35 68.833 1.167 53.656 1.167 35 16.344 1.167 35 1.167M35 0C15.67 0 0 15.67 0 35s15.67 35 35 35 35-15.67 35-35S54.33 0 35 0zM45.303 35.583h7.184v5.486h1.763V28.79h-1.763v4.964h-7.184V28.79h-1.83v12.28h1.764v-5.487h.066zm-7.9 3.32c.458-.652 1.046-1.608 1.568-2.327l-1.5-1c-.458.587-.85 1.262-1.372 1.784l-3.657-4.07c-.26-.328-.717-.73-.717-1.318 0-.457.457-.854 1.502-.854.914 0 2.09.52 2.612.846l.784-1.57c-.717-.456-2.024-.914-3.46-.914-2.155 0-3.33.98-3.33 2.48 0 .98.52 1.764.913 2.156-1.37.13-3.2 1.24-3.2 3.2 0 2.416 2.612 3.46 4.702 3.46 1.633 0 2.35.02 3.723-.764l.784 1.194h2.416l-1.764-2.302zm-5.354.114c-.915 0-2.81-.392-2.81-1.633s1.7-1.633 2.613-1.83l2.743 2.875c-.914.456-1.437.587-2.547.587zm-16.3-8.397h4.31v10.45h1.698V30.62h4.31v-1.763H15.75v1.763z"/><g fill="#A29162"><path d="M12.954 23.017l-3.74-2.79 1.912-2.563.578.432-1.422 1.906.964.72 1.393-1.867.577.43-1.393 1.867 1.043.78 1.422-1.908.576.43-1.912 2.563zM19.74 16.02l-3.976-1.133 2.055 2.633-.646.504-2.874-3.68.662-.517 3.872 1.08-1.99-2.55.645-.504 2.872 3.68-.623.488zM23.38 13.79L21.65 9.456l1.61-.645c1.36-.54 2.628-.01 3.135 1.26.512 1.278-.042 2.533-1.393 3.073l-1.62.647zm2.232-3.41c-.333-.832-1.118-1.286-2.08-.9l-.857.34 1.198 2.997.852-.34c.942-.377 1.217-1.27.887-2.097zM30.016 9.18c-.124-1.39.77-2.495 2.165-2.62 1.39-.123 2.472.808 2.596 2.195.124 1.39-.776 2.496-2.165 2.62-1.395.125-2.47-.807-2.594-2.194zm3.922-.35c-.086-.963-.758-1.627-1.692-1.544-.942.083-1.478.856-1.392 1.82.085.955.75 1.627 1.692 1.543.935-.084 1.478-.864 1.392-1.82zM40.87 11.818l-.686-1.902-.804-.152-.324 1.71-.804-.152.867-4.582 2.012.38c.907.172 1.395.87 1.234 1.72-.154.812-.775 1.157-1.348 1.14l.786 2.014-.934-.176zm.673-3.14c.083-.44-.194-.784-.647-.87L39.79 7.6l-.276 1.458 1.106.208c.453.088.838-.138.923-.585zM44.937 12.34l.692-.377c.135.447.463.946 1.05 1.226.608.29.984.105 1.12-.18.424-.884-2.29-1.51-1.55-3.057.337-.702 1.2-.948 2.13-.504.65.31 1.085.783 1.29 1.347l-.682.35c-.174-.494-.55-.86-.992-1.073-.43-.206-.81-.124-.96.185-.377.79 2.308 1.478 1.557 3.044-.336.702-1.126 1.07-2.257.528-.78-.373-1.208-.92-1.4-1.493zM50.714 16.322l2.992-3.587 2.458 2.05-.464.555-1.827-1.524-.77.924 1.79 1.494-.464.554-1.79-1.494-.835 1 1.827 1.526-.46.554-2.458-2.052zM55.46 20.81l3.822-2.673.993 1.42c.837 1.2.607 2.555-.51 3.336-1.13.79-2.476.535-3.31-.657l-.995-1.427zm3.825 1.395c.734-.513.998-1.38.406-2.23l-.528-.756-2.643 1.845.524.752c.58.832 1.513.897 2.24.388z"/></g><g fill="#A29162"><path d="M10.943 52.797l3.455-3.135 1.382 1.523c.658.726.528 1.57-.063 2.107-.585.53-1.444.573-2.097-.147l-.832-.916-1.295 1.174-.55-.607zm4.21-.127c.33-.3.328-.742.017-1.083l-.757-.834-1.093.992.757.834c.31.34.75.386 1.075.09zM18.835 59.64l.092-2.02-.685-.45-.953 1.46-.686-.45 2.553-3.906 1.716 1.12c.773.506.957 1.337.483 2.063-.452.692-1.157.774-1.68.54l-.044 2.16-.797-.518zm1.82-2.647c.246-.375.122-.8-.264-1.052l-.942-.615-.81 1.242.942.616c.386.254.828.19 1.076-.19zM24.112 59.806c.418-1.328 1.666-2.006 3-1.586 1.33.417 1.97 1.69 1.553 3.02s-1.673 2.003-3 1.585c-1.336-.42-1.97-1.69-1.553-3.02zm3.752 1.18c.29-.92-.075-1.79-.97-2.07-.9-.285-1.69.222-1.98 1.144-.29.914.067 1.79.97 2.072.893.28 1.692-.23 1.98-1.145zM32.36 64.12l.096-4.668 1.735.035c1.463.03 2.423 1.015 2.395 2.38-.028 1.377-1.027 2.316-2.482 2.287l-1.742-.035zm3.386-2.27c.018-.896-.527-1.62-1.563-1.642l-.923-.02-.066 3.226.916.018c1.015.023 1.618-.694 1.636-1.582zM40.46 61.882l-.717-2.726.806-.212.71 2.706c.19.717.712 1.08 1.463.88.75-.196 1.027-.768.84-1.485l-.713-2.706.804-.213.718 2.725c.294 1.117-.152 2.037-1.464 2.382-1.306.344-2.153-.236-2.447-1.352zM47.732 58.946c-.734-1.243-.305-2.627.884-3.328.808-.477 1.56-.36 2.142-.05l-.412.664c-.393-.223-.93-.24-1.36.014-.797.47-1.03 1.422-.53 2.273.496.838 1.45 1.104 2.247.635.428-.253.67-.738.67-1.184l.78-.054c-.023.664-.27 1.39-1.08 1.866-1.19.7-2.612.402-3.34-.836zM56.706 55.308l-2.8-2.78-.997 1.003-.513-.507 2.57-2.587.51.508-.995 1.003 2.802 2.78-.578.58z"/></g><path fill="#A29162" d="M7 33l2 2-2 2-2-2zM63 33l2 2-2 2-2-2z"/></svg>