<svg width="50" height="50" viewBox="0 0 50 50" xmlns="http://www.w3.org/2000/svg"><title>Untitled 3</title><path d="M49.8 46.3L36.6 33.1c2.8-3.6 4.3-7.9 4.3-12.6 0-5.5-2.1-10.6-6-14.4-3.9-3.9-9-6-14.4-6-5.5 0-10.6 2.1-14.4 6-3.9 3.9-6 9-6 14.4 0 5.5 2.1 10.6 6 14.4 3.9 3.9 9 6 14.4 6 4.6 0 9-1.5 12.6-4.3l13.2 13.2 3.5-3.5zM9.6 31.5c-2.9-2.9-4.5-6.8-4.5-10.9 0-4.1 1.6-8 4.5-10.9 2.9-2.9 6.8-4.5 10.9-4.5 4.1 0 8 1.6 10.9 4.5 2.9 2.9 4.5 6.8 4.5 10.9 0 4.1-1.6 8-4.5 10.9-2.9 2.9-6.8 4.5-10.9 4.5-4.1 0-8-1.6-10.9-4.5z" fill="#fff"/></svg>