<svg xmlns="http://www.w3.org/2000/svg" viewBox="0 0 203 32"><title>Slice 2</title><desc>Created with Sketch.</desc><path d="M114.8 29.6h2v-.9h-2v-1.2h3.7v-.9h-4.6v5.2h4.7V31h-3.8v-1.4zm53.7.9l-3.3-3.9h-.9v5.2h.9V28l3.3 3.9h.9v-5.2h-.9v3.8zm-52.2-14.6h2.2V2.4h5.6V.1h-13.4v2.3h5.6v13.5zm41.9 10.6c-2 0-3.2 1.3-3.2 2.8 0 1.5 1.2 2.8 3.2 2.8s3.2-1.3 3.2-2.8c0-1.6-1.2-2.8-3.2-2.8zm0 4.6c-1.4 0-2.3-.9-2.3-1.9 0-1 .9-1.9 2.3-1.9s2.3.9 2.3 1.9c0 1-.9 1.9-2.3 1.9zm-33.9-2.4c-1.5 0-1.7-.2-1.7-.7 0-.4.5-.7 1.5-.7 1.1 0 1.7.4 2.1.6l.4-.8c-.4-.2-1.3-.7-2.6-.7-1.7 0-2.4.8-2.4 1.7 0 1.1.8 1.4 2 1.4 2 .1 2.3.1 2.3.7s-.7.8-1.6.8c-1.5 0-2.1-.4-2.7-.8l-.4.8c.3.2 1.3.9 3.1.9 1.2 0 2.6-.3 2.6-1.8 0-.7-.2-1.4-2.6-1.4zM71.4 15.9h2.3V9.1h6.5V6.8h-6.5V2.4h10.6V.1H71.4v15.8zm36 13.7l-2-3h-.9v5.2h.9v-3.7l2 2.9 1.9-2.9v3.7h.9v-5.2h-.9l-1.9 3zm-8.9-3l-2.8 5.2h1l.6-1.2h3.2l.7 1.2h1l-2.8-5.2h-.9zm-.7 3.1l1.1-2.1 1.1 2.1h-2.2zM108.2.2H94.8v2.3h5.6V16h2.2V2.5h5.6V.2zM88.7 15.9H91V.1h-2.3v15.8zm105.4 14.6l-3.3-3.9h-.8v5.2h.9V28l3.3 3.9h.9v-5.2h-.9v3.8h-.1zM149.6 8.9h9.3V16h2.3V.2h-2.3v6.4h-9.3V.2h-2.3V16h2.3V8.9zm-15 19.8c-1.5 0-1.7-.2-1.7-.7 0-.4.5-.7 1.5-.7 1.1 0 1.7.4 2.2.6l.4-.8c-.4-.2-1.3-.7-2.6-.7-1.7 0-2.4.8-2.4 1.7 0 1.1.8 1.4 2 1.4 2 .1 2.3.1 2.3.7s-.7.8-1.6.8c-1.5 0-2-.4-2.7-.8l-.4.8c.3.2 1.3.9 3.1.9 1.2 0 2.6-.3 2.6-1.8-.1-.7-.4-1.4-2.7-1.4zm6.9-18.2l-1.9-1.2c-.6.8-1.1 1.7-1.8 2.4l-4.7-5.2c-.3-.4-.9-.9-.9-1.7 0-.6.6-1.1 1.9-1.1 1.2 0 2.7.7 3.4 1.1l1-2c-.9-.6-2.6-1.2-4.5-1.2-2.8 0-4.3 1.3-4.3 3.2 0 1.3.7 2.3 1.2 2.8-1.8.2-4.1 1.6-4.1 4.1 0 3.1 3.4 4.5 6.1 4.5 2.1 0 3-.4 4.8-1.4l1 1.1h3.1l-2.3-2.5c.6-.9 1.4-1.9 2-2.9zm-8.9 3.4c-1.2 0-3.6-.5-3.6-2.1s2.2-2.1 3.4-2.4l3.5 3.7c-1.2.6-1.9.8-3.3.8zm9.7 15.4l1 1 1-1-1-1-1 1zm51-15.7V.2H191V16h11.9v-2.3h-9.6v-.1zm-63.4 10.5c-.3 0-.6.3-.6.6 0 .4.2.5.4.6.3.1.7 0 .7.3 0 .5-.7 1.1-.9 1.2l.1.1c.1 0 1.2-.7 1.2-1.7 0-.7-.5-1.1-.9-1.1zM177.7.2h-2.3V16h11.9v-2.3h-9.6V.2zm-27.8 26.4h-.9v5.2h4.1V31h-3.2v-4.4zm33.9-.1c-2 0-3.2 1.3-3.2 2.8 0 1.5 1.2 2.8 3.2 2.8s3.2-1.3 3.2-2.8c-.1-1.6-1.2-2.8-3.2-2.8zm0 4.6c-1.4 0-2.3-.9-2.3-1.9 0-1 .9-1.9 2.3-1.9s2.3.9 2.3 1.9c0 1-.9 1.9-2.3 1.9zM47.2 14c1-1.3 1.1-2.4 1.1-4V.2H46V10c0 3.1-1.6 4-4.5 4-1.3 0-3-.2-4-1.2-.8-.8-.9-1.7-.9-2.8V.2h-2.3V10c0 1.4.1 2.5.9 3.7 1.3 1.9 3.7 2.6 5.9 2.6 2.3-.1 4.8-.6 6.1-2.3zm-4.7 15.1c.2-.2.7-.5.7-1.1 0-1.3-1.5-1.4-2.4-1.4-1.2 0-2.4.3-2.4 1.4 0 .7.5 1 .7 1.1-.5.2-1.1.6-1.1 1.3 0 1 1.1 1.6 2.8 1.6 1.8 0 2.8-.6 2.8-1.5-.1-.8-.7-1.2-1.1-1.4zm-1.8-1.8c1 0 1.7.2 1.7.7 0 .3-.3.8-1.7.8-1 0-1.8-.3-1.8-.8.1-.4.5-.7 1.8-.7zm.1 4c-1.4 0-2.2-.4-2.2-.9 0-.7 1.1-.9 2.1-.9 1.2 0 2.1.3 2.1 1 0 .4-.5.8-2 .8zm-12.4.6h1.3v-1.3h-1.3v1.3zm2.8-27.1c0-3-2.1-4.6-5-4.6h-9.3V16h2.3V9.5h5.9l3.2 6.5h2.6l-3.3-6.6c2.3-.6 3.6-2.2 3.6-4.6zm-4.9 2.3h-7V2.5h7c1.5 0 2.7.6 2.7 2.2-.1 1.7-1.2 2.4-2.7 2.4zM34 31.9h.7v-5.2H34v5.2zm29.3-2.6l1 1 1-1-1-1-1 1zM55.5 8.9H64V6.6h-8.5V2.5h10.7V.2h-13V16h13.4v-2.3H55.5V8.9zm.3 19.6c-.7 0-1.3.2-1.9.4v-1.5h4v-.7h-4.7v2.7l.5.4c.8-.4 1.2-.6 2.1-.6 1 0 1.8.4 1.8 1 0 .8-1.3 1.1-2.1 1.1-1.1 0-1.8-.4-2.2-.6l-.4.6c.8.5 1.7.8 2.6.8 1.8 0 2.8-.8 2.8-1.8 0-.9-.9-1.8-2.5-1.8zm-7.6-1.9c-1.9 0-3 1.2-3 2.7 0 1.5 1.1 2.7 3 2.7s3-1.2 3-2.7c0-1.5-1.1-2.7-3-2.7zm0 4.7c-1.6 0-2.3-1-2.3-2s.8-2 2.3-2c1.6 0 2.3 1 2.3 2s-.7 2-2.3 2zM8.7 29.6h2v-.9h-2v-1.2h3.7v-.9H7.8v5.2h4.7V31H8.7v-1.4zm75.8 2.3h1.3v-1.3h-1.3v1.3zM78 27.5h2v4.3h.9v-4.3h2v-.9H78v.9zm14.3 2c0 .6 0 1.6-1.5 1.6-1.1 0-1.5-.7-1.6-1l-.7.5c.2.5.8 1.4 2.4 1.4 1.8 0 2.4-1 2.4-2.5v-2.9h-.9v2.9h-.1zm-18.8-.8c-1.5 0-1.7-.2-1.7-.7 0-.4.5-.7 1.5-.7 1.1 0 1.7.4 2.1.6l.4-.8c-.4-.2-1.3-.7-2.6-.7-1.8 0-2.4.8-2.4 1.7 0 1.1.8 1.4 2 1.4 2 .1 2.3.1 2.3.7s-.7.8-1.6.8c-1.5 0-2.1-.4-2.7-.8l-.4.8c.3.2 1.3.9 3.1.9 1.2 0 2.6-.3 2.6-1.8 0-.7-.3-1.4-2.6-1.4zM-.2 2.5h5.6V16h2.2V2.5h5.6V.2H-.2v2.3zm17.6 26.2c-1.5 0-1.7-.2-1.7-.7 0-.4.5-.7 1.5-.7 1.1 0 1.7.4 2.1.6l.4-.8c-.4-.2-1.3-.7-2.6-.7-1.7 0-2.4.8-2.4 1.7 0 1.1.8 1.4 2 1.4 2 .1 2.3.1 2.3.7s-.7.8-1.6.8c-1.5 0-2.1-.4-2.7-.8l-.4.8c.3.2 1.3.9 3.1.9 1.2 0 2.6-.3 2.6-1.8.1-.7-.2-1.4-2.6-1.4zm149.8-12.8h2.3V.1h-2.3v15.8zM21.9 27.5h2v4.3h.9v-4.3h2v-.9h-4.9v.9zm153.7-.9h-2.9v5.2h2.9c1.4 0 2.7-.8 2.7-2.6-.1-2.1-1.6-2.6-2.7-2.6zm0 4.4h-2v-3.4h2c.9 0 1.8.4 1.8 1.7-.1 1.1-.9 1.7-1.8 1.7z" fill="#fff"/></svg>