<svg width="24" height="21" viewBox="0 0 24 21" xmlns="http://www.w3.org/2000/svg"><title>rotate</title><desc>Created with Sketch.</desc><g fill="#fff"><path d="M0 20.452V0h7.285c1.756 0 3.245.52 4.467 1.555 1.222 1.037 1.833 2.432 1.833 4.187 0 1.702-.644 3.085-1.932 4.147-1.288 1.062-2.81 1.594-4.566 1.594l6.922 8.407v.562h-3.34l-7.168-8.968h-.56v8.968H0zM2.94 8.68h4.48c.88 0 1.638-.27 2.272-.813.634-.542.95-1.25.95-2.128 0-.878-.316-1.586-.95-2.126-.634-.54-1.39-.81-2.27-.81H2.94V8.68zM19.718 2.327c1.06 0 1.924.863 1.924 1.924 0 1.062-.863 1.925-1.924 1.925-1.06 0-1.924-.863-1.924-1.924 0-1.06.862-1.923 1.924-1.923zm0-2.31c-2.338 0-4.233 1.896-4.233 4.234 0 2.34 1.895 4.234 4.233 4.234 2.338 0 4.233-1.895 4.233-4.233C23.95 1.914 22.056.02 19.72.02z"/></g></svg>